<?xml version="1.0" encoding="UTF-8"?>
<svg version="1.1" xmlns="http://www.w3.org/2000/svg" width="512" height="512">
<path d="M0 0 C168.96 0 337.92 0 512 0 C512 168.96 512 337.92 512 512 C343.04 512 174.08 512 0 512 C0 343.04 0 174.08 0 0 Z " fill="#FFFEFE" transform="translate(0,0)"/>
<path d="M0 0 C1.22589844 0.2784375 2.45179688 0.556875 3.71484375 0.84375 C20.17246416 4.59997449 35.93871067 10.40845004 51 18 C51.65500488 18.32162109 52.31000977 18.64324219 52.98486328 18.97460938 C70.18439803 27.44534952 85.73646344 38.21522904 100 51 C101.01234201 51.87968805 102.02536515 52.75859285 103.0390625 53.63671875 C132.89758804 79.83085446 152.3083542 117.0977202 159 156 C159.33837891 157.86205078 159.33837891 157.86205078 159.68359375 159.76171875 C164.59740211 191.65064061 160.92893596 228.28068588 148 258 C147.72172363 258.64936523 147.44344727 259.29873047 147.15673828 259.96777344 C140.18297935 276.08775487 131.24189493 289.44182511 119 302 C118.35804688 302.71542969 117.71609375 303.43085938 117.0546875 304.16796875 C103.0401129 319.36559186 82.81102451 327.78960329 63 332 C61.82824219 332.33644531 61.82824219 332.33644531 60.6328125 332.6796875 C40.63264304 338.36066949 16.44401094 332.12026145 -2 324 C-3.56234375 323.32324219 -3.56234375 323.32324219 -5.15625 322.6328125 C-29.6554843 311.22132705 -50.19574289 289.64572602 -60.375 264.5625 C-60.92491672 263.04463031 -61.46740723 261.52403469 -62 260 C-62.26167969 259.36320312 -62.52335938 258.72640625 -62.79296875 258.0703125 C-69.72950653 241.098682 -72.46032827 216.79757942 -67 199 C-64.84931395 195.89394721 -63.15661144 194.10440762 -60 192 C-55.21012845 191.42907104 -50.58797656 191.39183877 -46.0625 193.125 C-42.32277283 196.52475197 -40.15241213 199.5260208 -39.62524414 204.62426758 C-39.65885374 205.96499397 -39.71319355 207.30531572 -39.78515625 208.64453125 C-39.82580814 210.13303348 -39.86557099 211.62156021 -39.90454102 213.11010742 C-39.93154083 213.87906342 -39.95854065 214.64801941 -39.98635864 215.4402771 C-40.7880577 240.41762085 -34.99123603 260.02231466 -18 279 C-17.49597656 279.59683594 -16.99195313 280.19367188 -16.47265625 280.80859375 C-8.3143868 289.79722141 2.92322609 296.17247484 14.29296875 300.0625 C17 301 17 301 18.88891602 301.98974609 C31.95593339 308.24293424 53.36319621 307.05847945 66.7421875 302.390625 C94.15550188 290.68901838 111.79421535 272.54755393 123 245 C124.48194865 240.70234892 125.758547 236.37156197 127 232 C127.32492432 231.07783691 127.64984863 230.15567383 127.98461914 229.20556641 C133.23932684 212.61640744 134.00484803 193.3041268 133 176 C132.95601074 175.23187988 132.91202148 174.46375977 132.86669922 173.67236328 C130.49342724 137.82908844 114.11991502 104.96112306 89.33837891 79.38525391 C88.18428424 78.19073856 87.04923142 76.97787918 85.91796875 75.76171875 C67.55597589 56.47196204 41.13760281 42.12447323 16 34 C15.10152344 33.67773438 14.20304688 33.35546875 13.27734375 33.0234375 C-20.70677596 21.03980444 -48.62541239 26.87794914 -80.734375 41.9140625 C-97.05996745 49.79563818 -112.6591278 59.51589219 -125.87890625 72 C-127.85708891 73.86524773 -129.90239514 75.58457204 -132 77.3125 C-154.19328187 96.73720345 -169.60479106 127.23412126 -175 156 C-175.2638147 157.37575195 -175.2638147 157.37575195 -175.53295898 158.77929688 C-177.09344156 167.74391885 -177.35730372 176.55879008 -177.3125 185.625 C-177.31100952 186.37223328 -177.30951904 187.11946655 -177.3079834 187.88934326 C-177.26640026 199.50189961 -176.55754127 210.65108457 -174 222 C-173.72990827 223.34103307 -173.46037524 224.68217879 -173.19140625 226.0234375 C-169.05210823 245.42239407 -160.08453269 264.09543833 -147 279 C-146.33484375 279.76054687 -145.6696875 280.52109375 -144.984375 281.3046875 C-132.35092624 294.82715672 -113.20973061 304.76317571 -94.58984375 305.3984375 C-92.37239596 305.40628687 -90.15483898 305.39832677 -87.9375 305.375 C-86.27750977 305.39240234 -86.27750977 305.39240234 -84.58398438 305.41015625 C-78.33831864 305.38802158 -73.00137316 304.76051713 -67.09887695 302.6796875 C-62.68619261 301.25071074 -59.17282182 301.57778414 -54.875 303.125 C-51.3229142 305.44157769 -49.26989746 307.39486875 -47 311 C-46.04860999 315.6163098 -46.56326697 319.03554788 -48.5 323.3125 C-57.46806478 332.95316963 -74.71301463 333.97971449 -87.13818359 334.52807617 C-116.44299974 334.96680829 -143.06478783 321.75446903 -164 302 C-189.83058215 276.13010189 -204.98944884 235.80844331 -205.203125 199.390625 C-205.21009399 198.58994095 -205.21706299 197.7892569 -205.22424316 196.96430969 C-205.24155279 194.39281916 -205.2479633 191.82154638 -205.25 189.25 C-205.25100708 188.373508 -205.25201416 187.49701599 -205.25305176 186.59396362 C-205.24310773 173.82598045 -204.81966737 161.50012022 -202 149 C-201.79117188 147.99018066 -201.79117188 147.99018066 -201.578125 146.95996094 C-192.52398549 103.38691455 -165.53363473 65.17997329 -130 39 C-128.99839844 38.25363281 -127.99679688 37.50726563 -126.96484375 36.73828125 C-110.86894746 25.17000482 -93.41886734 16.2248436 -75 9 C-74.34451172 8.74138184 -73.68902344 8.48276367 -73.01367188 8.21630859 C-63.85529175 4.65224643 -54.4329752 1.97582619 -44.93115234 -0.49511719 C-43.38335791 -0.89977444 -41.84104633 -1.32537918 -40.30078125 -1.7578125 C-27.1496048 -5.01691731 -12.89619521 -3.40377393 0 0 Z " fill="#FF7CAC" transform="translate(278,91)"/>
</svg>
