<svg xmlns="http://www.w3.org/2000/svg" viewBox="0 0 467.17 133.7"><defs><style>.cls-1{fill:#ff7bac;}.cls-2{fill:none;}</style></defs><title>logo_01</title><g id="レイヤー_2" data-name="レイヤー 2"><g id="レイヤー_1-2" data-name="レイヤー 1"><path d="M156.27,67.26l-.16,4.31c-.39,9.24,2.51,13.55,11.44,13.55a55.27,55.27,0,0,0,10.65-1.33l1.57,8.38A74.88,74.88,0,0,1,165.19,94c-11,0-20.68-4.46-20.68-22.4V50L157,49.56l-.31,8.38,24.83-.08.16,9.32ZM186,48.39A6.46,6.46,0,1,1,179.53,42,6.37,6.37,0,0,1,186,48.39Zm-4.62.08a1.88,1.88,0,0,0-1.8-1.8,1.84,1.84,0,1,0,1.8,1.8Z"/><path d="M195,77.37V67.66h29.26v9.71Z"/><path d="M281.07,78.07H265.57c-.94,5.17-2.19,10.1-3.76,15.82l-10-1.72c1.1-5.09,1.88-9.56,2.43-14H240l-.16-9.32H255l.23-6.66c-5.17.31-10.42.55-15.51.63l-.55-9.16c13.39-.86,25.61-2.51,39.55-4.39l1.72,10.65c-3.84.47-8.15.94-12.69,1.33-.23,2.66-.47,5.17-.78,7.52h13.94Z"/><path d="M322.42,55.36h15.43L337.7,68.2c-4.15,10.18-8.07,17.15-15.12,25.61L314.44,89c5.33-7.6,8.69-15,11.83-24.36L307,64.76l-.08,9.63H297l-.31-19h15V50h10.73Z"/><path d="M387.82,84.13l.08,7.52-34.23.08-.16-7.52h12.92V70.26H355.63l-.08-7.75,30.31-.08.08,7.75H375V84.13Z"/><path d="M412.92,87.94a104.45,104.45,0,0,0,17.47-25.85l-27.73.08-.16-9.32,41.28-.08V63.5C438.53,74.39,430.23,84.57,419.11,94Zm19.74-37-1.8-10.18,6.74-.94,1.1,10.26Zm8-1-1.1-10.42,6.27-.55.71,10.34Z"/><path class="cls-1" d="M87.89,112.79A31.22,31.22,0,0,1,57.12,76.58a4.59,4.59,0,0,1,4.55-3.88,4.65,4.65,0,0,1,.74.06,4.61,4.61,0,0,1,3.82,5.29,22,22,0,0,0,18.2,25.23,21.54,21.54,0,0,0,3.43.28A20,20,0,0,0,100.67,99c5.08-4.18,8.48-10.79,9.83-19.12,2-12.54-1-24.06-8.78-33.3-7.36-8.75-18.55-14.81-31.55-17.06-13,2.26-24.19,8.31-31.55,17.06-7.77,9.25-10.81,20.76-8.78,33.3,1.35,8.33,4.75,14.94,9.83,19.12a20,20,0,0,0,12.82,4.61,21.55,21.55,0,0,0,3.43-.28,22.47,22.47,0,0,0,2.64-.59,4.61,4.61,0,1,1,2.57,8.86,31.68,31.68,0,0,1-3.73.84l-.11,0a30.8,30.8,0,0,1-4.84.39,29,29,0,0,1-18.65-6.71C27,100.44,22.45,91.88,20.74,81.3,18.3,66.25,22.15,51.79,31.56,40.59,40.49,30,53.94,22.74,69.44,20.23a4.62,4.62,0,0,1,1.47,0c15.5,2.51,28.95,9.74,37.87,20.36C118.2,51.79,122,66.25,119.61,81.3c-1.71,10.57-6.23,19.14-13.07,24.77A29,29,0,0,1,87.89,112.79Z"/><rect class="cls-2" width="467.17" height="133.7"/></g></g></svg>