<svg xmlns="http://www.w3.org/2000/svg" viewBox="0 0 289.87 240.26"><defs><style>.cls-1{fill:#ff7bac;}.cls-2{fill:none;}</style></defs><title>logo_02</title><g id="レイヤー_2" data-name="レイヤー 2"><g id="レイヤー_1-2" data-name="レイヤー 1"><path d="M30.1,198,30,201.53c-.32,7.63,2.07,11.19,9.45,11.19a45.65,45.65,0,0,0,8.8-1.1l1.29,6.92a61.85,61.85,0,0,1-12,1.49c-9.06,0-17.08-3.69-17.08-18.5V183.68l10.29-.32-.26,6.92,20.51-.06.13,7.7Zm24.52-15.59a5.34,5.34,0,1,1-5.3-5.31A5.26,5.26,0,0,1,54.62,182.39Zm-3.82.06A1.55,1.55,0,0,0,49.31,181a1.52,1.52,0,1,0,1.49,1.49Z"/><path d="M62.12,206.32v-8H86.29v8Z"/><path d="M133.19,206.9H120.38c-.78,4.27-1.81,8.35-3.11,13.07L109,218.55c.91-4.21,1.55-7.89,2-11.58H99.22l-.13-7.7h12.55l.19-5.5c-4.27.26-8.6.45-12.81.52l-.45-7.57c11.06-.71,21.15-2.07,32.67-3.62l1.42,8.8c-3.17.39-6.73.78-10.48,1.1-.19,2.2-.39,4.27-.65,6.21h11.52Z"/><path d="M167.34,188.14h12.74L180,198.75a72.75,72.75,0,0,1-12.49,21.16L160.74,216a73.55,73.55,0,0,0,9.77-20.12l-15.91.06-.06,8h-8.15l-.26-15.66h12.36v-4.53h8.86Z"/><path d="M221.36,211.91l.06,6.21-28.27.07L193,212H203.7V200.46h-8.93l-.06-6.4,25-.06.06,6.4h-9.06v11.52Z"/><path d="M242.09,215.06a86.27,86.27,0,0,0,14.43-21.35l-22.9.06-.13-7.7,34.09-.07v8.86c-4.33,9-11.19,17.4-20.38,25.17Zm16.3-30.54-1.49-8.41,5.56-.78.91,8.48Zm6.6-.84-.91-8.6,5.18-.45.58,8.54Z"/><path class="cls-1" d="M172,158.08a45.37,45.37,0,0,1-7.25-.59,45.92,45.92,0,0,1-37.95-52.61,5.5,5.5,0,0,1,10.87,1.76,34.9,34.9,0,0,0,28.84,40,32,32,0,0,0,25.84-6.89c8-6.58,13.33-16.92,15.43-29.92,3.15-19.47-1.57-37.35-13.64-51.72-11.45-13.62-28.82-23-49-26.44-20.18,3.45-37.56,12.82-49,26.44C84,72.47,79.32,90.35,82.47,109.82c2.1,13,7.44,23.34,15.43,29.92a32,32,0,0,0,25.84,6.89h.09a35.37,35.37,0,0,0,4.09-.93A5.5,5.5,0,1,1,131,156.26a46.47,46.47,0,0,1-5.49,1.23l-.11,0a42.9,42.9,0,0,1-34.5-9.27c-10.09-8.3-16.76-21-19.3-36.66C68,89.18,73.69,67.67,87.69,51,101,35.18,121.09,24.4,144.24,20.65a5.52,5.52,0,0,1,1.76,0C169.16,24.4,189.24,35.18,202.55,51c14,16.65,19.71,38.16,16.09,60.56-2.54,15.68-9.21,28.36-19.3,36.66A42.66,42.66,0,0,1,172,158.08Z"/><rect class="cls-2" width="289.87" height="240.26"/></g></g></svg>