<?xml version="1.0" encoding="UTF-8"?>
<svg xmlns="http://www.w3.org/2000/svg" width="800" height="450" version="1.1" viewBox="0 0 800 450">
  <!-- Generator: Adobe Illustrator 28.7.1, SVG Export Plug-In . SVG Version: 1.2.0 Build 142)  -->
  <g>
    <g id="_レイヤー_2" data-name="レイヤー_2" display="none">
      <rect x="-5" y="-9" width="815" height="468"/>
    </g>
    <g id="layer1">
      <g>
        <path d="M106.3,103.4c0,7.1-2.5,14.7-7.4,21.6l-13.1-5.5c3.2-5.1,4.8-10.2,4.8-14.7v-.3l-13.7,7,1.1,10.5-14.5,2.1-.7-5.4-12.5,6.3c-6.3-6-9.2-13.4-9.2-20.6s5.6-19.3,16.8-24l-.9-7.1h-18.8l-.3-14.6h17.2l-1.1-7.9,16.5-1.7.9,9.6h35.5c0-.1.3,14.5.3,14.5h-34.2l.4,4.2h.8c22.1,0,32,12.1,32,26.1ZM61.1,105.3l-1.3-10.7c-3.2,2.3-4.8,5.2-4.8,8.3s.5,3.4,1.5,5l4.7-2.5ZM75.5,97.2l8.3-4.6c-2.4-1.3-5.4-2-9-2l.7,6.6Z" fill="#fff"/>
        <path d="M183.9,73h-23.5c0,.1-6.6,41.1-6.6,41.1l-15.5-1.9,5.5-39h-9.8v-15.7h11.9l1.3-9.1,16.9,1.7-1.2,7.5h21.2l-.3,15.3ZM189.5,77l.8,18.5c4.2.4,8,1.1,12.6,2.1l-2.4,12.1c-3.9-.9-6.7-1.5-9.8-1.7-.7,7.9-4.8,16.5-16.3,16.5s-16.1-7.9-16.1-15.7,5.5-15.1,17.7-15.1l-1.2-15.7,14.7-.9ZM177.6,108.9c0-1.6-1.5-3.1-3.1-3.1s-3.1,1.5-3.1,3.1,1.5,3.1,3.1,3.1,3.1-1.5,3.1-3.1ZM209.3,80.2l-13.8,4.4-6-21.3,14.2-4,5.6,20.9Z" fill="#fff"/>
        <path d="M294.3,73.8h-33.2c0,.1-6.6,40.6-6.6,40.6l-15.8-2.9,5.2-37.4h-10.5v-15.7h12.7l1.3-9.9,17.3,1.7-1.3,8.2h31.1c0,.1-.3,15.4-.3,15.4ZM298.8,107.4l3.9,13.1c-5.9,2.5-13.3,3.8-20.4,3.8s-13.3-1.1-18-3.2l2.1-13.4c3.6,1.1,9.2,1.5,15.1,1.5s12.9-.5,17.2-1.7ZM301.5,102.3h-13.9l.9-6.4h-22.1c0,.1-.3-13.4-.3-13.4l37.7-.3-2.3,20.1Z" fill="#fff"/>
        <path d="M400.7,86.2c0,12.1-5.9,25.7-17.6,37.8l-13-8.2c8-9.6,13-20,13-28.1s-3.5-12.2-11.5-14.5c-.7,22.2-5,41.5-25.9,39.9-12.2-.9-19.2-12.1-19.2-24.1s11.5-33,38.6-33,35.5,13.3,35.5,30.2ZM355.4,73c-9.8,2.4-13.5,10.1-13.5,16.3s2.3,8.7,5.8,8.7c6.2,0,7.2-10.6,7.8-25.1Z" fill="#fff"/>
        <path d="M468.5,46c-3.5,6-7.9,13-12.7,20l7.9-.3v53.6l-18.1.3-.8-37.5-4.2,5.8-15.8-11c6.2-8.4,20.8-31.4,26.5-42.6l17.2,11.8ZM530.8,65.5h-19.4v41h11.3v16.6h-45v-16.6h12.2v-41h-17.8v-17.3h17.8v-18.9h21.6v18.9h19.4v17.3Z" fill="#fff"/>
        <path d="M658.5,41.6h-40.3v3.9h29.5v25.7h-30.2v4.4h32.3l-.5,16.2h8.7v11.4h-9.1l-.4,14.2h-31.9l-.4,15.5-30.8-.9.4-11h10.1c0,.1,0-3.6,0-3.6h-32v-9.9h32v-4.3h-40.1v-11.4h40.1v-4.4h-34.7v-11.8h34.7v-4.4h-30.7v-25.7h30.7v-3.9h-43.6v-17.2h43.6v-5.8h22.9v5.8c-.1,0,39.8,0,39.8,0v17.2ZM584.4,61.5h11.4v-5.9h-11.4v5.9ZM629.1,107.6v-4.3c.1,0-12.3,0-12.3,0v4.3c-.1,0,12.3,0,12.3,0ZM629.9,87.5h-12.7v4.4c-.1,0,12.6,0,12.6,0v-4.4ZM630.1,55.6h-12.2v5.9c-.1,0,12.2,0,12.2,0v-5.9Z" fill="#fff"/>
        <path d="M713.4,61.3c22.1,1.9,26.3,11.1,26.3,21.7s-.1,4.6-.4,7c-.9,9.2-2.5,20.6-5.6,33.6l-20.2-.8.7-15.7,7.9.4,2.1-14.3c.1-1.5.3-2.9.3-4.3,0-6.6-2.4-10.6-13.4-11.5l-6.6,46.2-15.4-2,5.5-44.1c-3.5.3-7.4.5-11.7,1.1l-1.6-15.9c5.6-.7,10.6-1.1,15.1-1.3l1.5-11.5,16.8,2.7-1.2,8.8ZM748.4,50.9l-10.6,1.5-3.1-17.7,11.8-1.6,1.9,17.8ZM740.8,56.8l15.7-1.2,1.6,30.3-15.1,1.2-2.1-30.3ZM762.1,49.5l-10.3,1.1-1.7-18.1,10.9-1.1,1.2,18.1Z" fill="#fff"/>
      </g>
      <g>
        <path d="M153.8,209.4c-7.8,7.9-15.9,15.3-24.3,22,4.9,7.5,10.6,14.7,17.4,22.5l-21.9,13.9c-4.8-7-8.7-13.9-12.3-21v31l-35.4-1.9,1.4-16.3,10,.6.3-27.4c-7.6,12-17.1,24.3-29.7,36.9l-13.5-6.9c10-12,14.2-18.1,19.9-29.7h-19.6v-19.9h43.2v-7h-30.6v-19.5h54v11.1c2.1,5.7,4.3,10.9,6.6,15.7,6-6.6,10.8-13.2,16-20.2l18.4,16.2ZM113.8,182.3c-13.3-.5-32.4-2.4-46.2-4.9l3-15.1c14.1,1.5,32.7,3.1,45.7,4.2l-2.5,15.9Z" fill="#ff7bac"/>
        <path d="M736.3,277.7l-33.4-42.7,31.5-43.2,19.8,13-25.3,31,23.7,30.3-16.2,11.5Z" fill="#ff7bac"/>
      </g>
      <g>
        <path d="M125.3,334.9v29.5h-19.4c0,1.2,0,2.2-.1,3.6l-13-.4c0-3.3,0-6.8-.3-10.4h10.1c0,.1,0-4.3,0-4.3H31.3v5.8l8.1.4c-.4,8-1.2,11-4.1,18.2l-14.7-1.9c1.5-4.1,2.2-6.5,2.7-9.2h-14.5v-31.2h13.8l-1.5-5.9,24-1.5.9,7.4h9.9l-1.5-7.4,22.1-.7.3,8.1h11.1l.4-7.8,23.2,2.1-2.7,5.8h16.4ZM13.4,323.9l-1.6-18.6c35.8,0,71.2-.7,105.8-2.2v19.7c-22.3,1.2-44.5,1.6-66.7,1.6s-25-.1-37.4-.4ZM53.2,386.2c-.1.9-.4,1.8-.6,2.7h49.6v15.5c-3.7,3.1-9.2,6.5-15.4,9.9l11.7,3.3-10.5,11.8c-4.9-1.6-11.4-3.8-17.9-6.4l-14.8,7-11.1-5.3c4-2.2,8.3-4.7,12.4-7.3-3-1.3-5.6-2.7-7.8-3.8l6.4-9.5c4,1.5,9,3.3,14.2,4.9,4.1-2.8,7.7-5.8,10.5-8.3h-30.8c-1.3,3.7-3,7.3-4.7,10.8l-17.2-2.5c3.4-8.6,4.9-16.7,6.8-25.6l19.2,2.8ZM62,359c0,10.5,1.6,13.8,13.5,13.8s3.1,0,5-.1v-3.4c.1,0,16.4,1.3,16.4,1.3l-1.6,14.2c-7.3.7-13.8,1.2-19.4,1.2-21.8,0-31.2-6.4-31.2-26.9h17.3ZM84.3,357.8c0,4.1.4,6.7,1.2,9.6l-14.4.4c-1.2-2.8-1.8-5.9-1.8-9.8l14.9-.3Z" fill="#fff"/>
        <path d="M228.5,366.2h-25.5l3.1,25.3-21.2,3.3-2.1-14.1,5-1-1.9-13.3h-33.7l-.3-16.1h31.7l-1.3-9.3,17.5-1.9,1.3,11.1h27.1l.3,16.1ZM166.8,388.7c9.8,9,17.9,13.8,33.9,20.7l-6.7,13.9c-15.2-4.4-24.1-9.8-38-21.8l10.8-12.9Z" fill="#fff"/>
        <path d="M307.8,422.8l5.3-30.2c1-5.8,1.6-10.5,1.6-14.1,0-7.3-2.2-10.2-6.7-10.2s-3.6.4-5.9,1.2c-3.3,1.2-6.5,3.7-10.1,8.4l1.5,43.7-15.7.7-1-17.5-4.9,10.5-14.2-5.5c4.6-11.5,10.1-24.6,17.3-35.1l-.3-5.5h-17.9l-.3-16.6h17.3l-.7-12,17.6-.6.6,18.6c3.4-1.9,7-3.3,10.8-3.8,2.7-.4,5.2-.7,7.5-.7,12.4,0,20.6,6.5,20.6,25.6s-1.2,15.7-3.6,26.3l9.6-1.8,2.1,13.3-30.6,5Z" fill="#fff"/>
        <path d="M438.9,384.6h-20.9c0,1.5,0,3,.1,4.3,6.1.3,13.2.9,17.5,1.8l-2.4,15.1c-3.8-1.2-11.2-1.8-15.7-1.6-1.5,11.1-6.7,18.9-18.6,18.9s-21.9-8.6-21.9-17.2,7-17,20.7-17.2c0-1.3.1-2.7.1-4h-23.2v-16.1c-.1,0,22.9,0,22.9,0,0-1.6-.1-3.3-.1-4.7h-28.7l-.3-16.1h28c0-2.1-.1-4.1-.3-6.4l19.4-1.6c.1,2.8.3,5.3.6,7.8h28.6l.3,16.1h-27.8c0,1.6.1,3.3.1,4.7h21.5v16.1ZM401.6,405.9c0-2.1-1.8-3.8-3.8-3.8s-3.8,1.8-3.8,3.8,1.8,3.8,3.8,3.8,3.8-1.8,3.8-3.8Z" fill="#fff"/>
        <path d="M551.1,367.1h-24.7v5.3c0,19.7-1.9,36-4.9,50.6l-18.6-2.7c1.8-6.4,2.2-10.2,3-14.8-1.9.4-3.8.6-5.6.6-11.1,0-16.1-7.4-16.1-15.1s5.9-17.2,17-17.2,2.4.1,3.6.3c.1-2.4.1-4.7.3-7h-30l-.3-16.1h29.7c-.3-3.6-.6-7-1.2-10.5l21.5-2.1c.4,4.3.9,8.4,1,12.4h25.2l.3,16.1ZM506,390.5c0-1.9-1.6-3.6-3.6-3.6s-3.7,1.6-3.7,3.6,1.6,3.7,3.7,3.7,3.6-1.6,3.6-3.7Z" fill="#fff"/>
        <path d="M620.8,366.4c.6,5.6,1.2,11.2,1.5,16.6,6.2.3,13.5,1,17.9,1.9l-2.4,16.1c-3.7-1-10.8-1.6-15.2-1.8-1,13.6-8.1,23.8-21.8,23.8s-23.1-9.8-23.1-19.8,8.1-20.3,24.6-20.3c-.4-12-2.2-27.2-4.7-41.6l19.4-1.6c.6,3.4,1.2,7,1.6,10.5h30.9c0-.1.3,16,.3,16h-29ZM604.1,402.9c0-2.1-1.8-3.8-3.8-3.8s-3.8,1.8-3.8,3.8,1.8,3.8,3.8,3.8,3.8-1.8,3.8-3.8Z" fill="#fff"/>
        <path d="M695.9,413.1c9.5-10.2,14.9-18.8,14.9-24.6s-4.3-8-13.8-8-9.8.6-16.4,1.9l-2.7-16.6c7.8-1.5,14.8-2.2,20.9-2.2,22.8,0,33,9.6,33,22.6s-7.4,24.4-20.6,36.4l-15.4-9.6ZM724.3,360.8l-38.9-5,2.2-16.7,40.1,5.9-3.4,15.8Z" fill="#fff"/>
        <path d="M754,411.2c0-10.4,8.3-18.6,18.6-18.6s18.5,8.3,18.5,18.6-8.3,18.5-18.5,18.5-18.6-8.3-18.6-18.5ZM779.9,411.4c0-3.8-3.3-7.1-7-7.1s-7.3,3.3-7.3,7.1,3.3,7.1,7.3,7.1,7-3.3,7-7.1Z" fill="#fff"/>
      </g>
      <path d="M166,244.5h445.5c20.5,0,41.2.7,61.7,0s.6,0,.8,0c12.9,0,12.9-20,0-20H228.5c-20.5,0-41.2-.7-61.7,0s-.6,0-.8,0c-12.9,0-12.9,20,0,20h0Z" fill="#ff7bac"/>
    </g>
  </g>
</svg>