<?xml version="1.0" encoding="UTF-8"?>
<svg xmlns="http://www.w3.org/2000/svg" width="1500" height="1116" version="1.1" viewBox="0 0 1500 1116">
  <!-- Generator: Adobe Illustrator 28.7.1, SVG Export Plug-In . SVG Version: 1.2.0 Build 142)  -->
  <g>
    <g id="_レイヤー_1" data-name="レイヤー_1">
      <g id="layer1">
        <g id="group">
          <g id="layer1-2">
            <g id="group-2">
              <g id="layer2">
                <g id="layer1-2-2" data-name="layer1-2">
                  <path d="M967.7,1115.9c-19.7,0-39.4-1.6-58.9-4.8-202.9-33.1-340.8-224.2-308.1-427.2,3.9-24.4,26.9-40.9,51.3-37,24.4,3.9,40.9,26.9,37,51.3-24.9,154.3,79.9,299.6,234.2,324.8,74.7,12.9,151.4-7.6,209.8-55.9,65-53.4,108.2-137.4,125.3-242.9,25.6-158.1-12.7-303.3-110.7-419.9-93-110.6-234-186.7-397.8-214.7-163.8,28-305,104.1-397.8,214.7-98.6,116.6-136.6,261.8-111,419.8,17.1,105.5,60.4,189.5,125.3,242.9,58.4,48.4,135.1,68.8,209.8,55.9h.7c11.2-1.9,22.3-4.4,33.2-7.6,23.7-6.9,48.5,6.6,55.4,30.3,6.9,23.7-6.6,48.5-30.3,55.4h0c-14.6,4.2-29.5,7.6-44.6,10h-.9c-99.9,16.8-202.1-10.6-280.1-75.3-81.9-67.4-136.1-170.5-156.7-297.6-29.2-181.7,17-356.4,130.6-491.7C391.3,118.1,554.4,30.6,742.3.1c4.7-.8,9.6-.8,14.3,0,188,30.4,351.1,118,459.1,246.4,113.7,135.2,160,309.8,130.6,491.7-20.6,127.3-74.8,230.3-156.7,297.6-62.3,51.8-140.9,80.2-222,80.1h.1Z" fill="#e9e9e9"/>
                  <rect x="395.3" y="256.3" width="163.1" height="135.2" display="none" fill="#eee"/>
                </g>
              </g>
              <g id="layer12-2">
                <g id="_レイヤー_1-2-2">
                  <path d="M967.7,1115.9c-19.7,0-39.4-1.6-58.9-4.8-202.9-33.1-340.8-224.2-308.1-427.2,3.9-24.4,26.9-40.9,51.3-37,24.4,3.9,40.9,26.9,37,51.3-24.9,154.3,79.9,299.6,234.2,324.8,74.7,12.9,151.4-7.6,209.8-55.9,65-53.4,108.2-137.4,125.3-242.9,25.6-158.1-12.7-303.3-110.7-419.9-93-110.6-234-186.7-397.8-214.7-163.8,28-305,104.1-397.8,214.7-98.6,116.6-136.6,261.8-111,419.8,17.1,105.5,60.4,189.5,125.3,242.9,58.4,48.4,135.1,68.8,209.8,55.9h.7c11.2-1.9,22.3-4.4,33.2-7.6,23.7-6.9,48.5,6.6,55.4,30.3,6.9,23.7-6.6,48.5-30.3,55.4h0c-14.6,4.2-29.5,7.6-44.6,10h-.9c-99.9,16.8-202.1-10.6-280.1-75.3-81.9-67.4-136.1-170.5-156.7-297.6-29.2-181.7,17-356.4,130.6-491.7C391.3,118.1,554.4,30.6,742.3.1c4.7-.8,9.6-.8,14.3,0,188,30.4,351.1,118,459.1,246.4,113.7,135.2,160,309.8,130.6,491.7-20.6,127.3-74.8,230.3-156.7,297.6-62.3,51.8-140.9,80.2-222,80.1h.1Z" fill="#eee"/>
                </g>
              </g>
            </g>
          </g>
        </g>
      </g>
    </g>
  </g>
</svg>